<svg xmlns="http://www.w3.org/2000/svg" xmlns:xlink="http://www.w3.org/1999/xlink" width="816" height="1056" viewBox="0 0 612 792"><defs><symbol id="a" overflow="visible"><path d="M1.36 0h2.624v-7.453H9.75v-2.203H3.984v-4.563h6.141v-2.203H1.359Zm0 0" style="stroke:none"/></symbol><symbol id="b" overflow="visible"><path d="M9.313-9.656c0-2.188-1.75-3.047-3.938-3.047-3.266 0-4.344 1.453-4.344 4.078h2.344c0-1.203.234-2.375 1.89-2.375 1.313 0 1.704.719 1.704 1.844 0 1.078-.547 1.344-1.453 1.594l-1.922.53C1.906-6.483.719-5.905.719-3.155.719-.781 1.953.328 3.938.328c1.437 0 2.406-.61 3.078-1.828h.046C7.126-.297 8.047.14 9.157.14c.485 0 .922-.156 1.219-.296v-1.61c-.094.047-.25.063-.422.063-.36 0-.64-.406-.64-.875ZM6.969-4.47c0 1.828-.735 2.953-2.235 2.953-1.03 0-1.53-.828-1.53-1.859 0-.922.296-1.656 1-2 .734-.36 2.124-.656 2.765-1.156Zm0 0" style="stroke:none"/></symbol><symbol id="c" overflow="visible"><path d="M1.203 0h2.484v-7.406c0-2.297 1.344-2.813 2.47-2.813.421 0 .859.094 1.046.14v-2.53c-.172-.047-.328-.094-.61-.094-1.39 0-2.312.875-2.874 2.265h-.031v-1.937H1.203Zm0 0" style="stroke:none"/></symbol><symbol id="d" overflow="visible"><path d="M1.328 1.063c0 1 .422 3.171 4.094 3.171 3.344 0 4.625-1.812 4.625-4.828v-11.781H7.703v1.516h-.047c-.234-.891-1.265-1.844-2.718-1.844-3.516 0-3.922 3.672-3.922 6.375 0 3.39.797 6.234 3.703 6.234 1.187 0 2.343-.625 2.797-1.703h.046v2c0 1.438-.796 2.328-2.093 2.328-1.094 0-1.782-.719-1.782-1.469ZM3.5-6.578c0-2.297.297-4.14 2.094-4.14 1.718 0 1.968 2.234 1.968 4.25 0 1.952-.203 4.406-2.14 4.406C3.594-2.062 3.5-4.47 3.5-6.578m0 0" style="stroke:none"/></symbol><symbol id="e" overflow="visible"><path d="M.719-6.187C.719-2.344 1.89.327 5.313.327c3.453 0 4.625-2.672 4.625-6.515 0-3.844-1.016-6.516-4.626-6.516C1.72-12.703.72-10.031.72-6.188m2.484 0c0-2.735.313-4.672 2.11-4.672 1.812 0 2.14 1.937 2.14 4.672 0 3.156-.328 4.671-2.14 4.671-1.797 0-2.11-1.515-2.11-4.671m0 0" style="stroke:none"/></symbol><symbol id="g" overflow="visible"><path d="M8.828-5.89v.28c0 1.516-.25 3.954-2.437 3.954-1.922 0-2.797-1.328-2.797-6.625 0-5.281.875-6.485 2.797-6.485 1.89-.062 2.343 1.672 2.343 3.204v.265h2.625v-.297c0-1.703-.265-5.156-4.937-5.156-4.172 0-5.453 2.672-5.453 8.531C.969-2.344 2.25.328 6.39.328c3.875 0 5.062-2.906 5.062-5.875v-.344Zm0 0" style="stroke:none"/></symbol><symbol id="h" overflow="visible"><path d="M1.313 0h2.484v-12.375H1.313Zm0-14.125h2.484v-2.484H1.313Zm0 0" style="stroke:none"/></symbol><symbol id="i" overflow="visible"><path d="M.094-10.531h1.703v7.672c0 2.53.828 3 2.5 3 .781 0 1.469-.078 2-.203v-1.844c-.219.047-.531.062-.89.062-.86 0-1.126-.343-1.126-1.312v-7.375h2.016v-1.844H4.28v-3.516H1.797v3.516H.094Zm0 0" style="stroke:none"/></symbol><symbol id="j" overflow="visible"><path d="M.188-12.375 3.703.281l-.328 1c-.266.782-.828.969-1.672.969-.281 0-.531-.047-.812-.094v1.985a7 7 0 0 0 1 .093c2.547.047 3.359-.39 4.312-3.78l3.407-12.83H7.016L5.03-3.078h-.047L2.86-12.375Zm0 0" style="stroke:none"/></symbol><symbol id="k" overflow="visible"><path d="M1.36 0h2.484v-13.656h.047L7.203 0h2.203l3.313-13.656h.047V0h2.484v-16.422h-4L8.39-4.25h-.046l-2.89-12.172H1.358Zm0 0" style="stroke:none"/></symbol><symbol id="l" overflow="visible"><path d="M9.797-5.86v-1.312c0-3.453-.922-5.531-4.375-5.531C1.547-12.703.844-9.25.844-6 .844-.281 3.359.328 5.375.328c2.703 0 4.36-1.734 4.36-4.469H7.39c0 .735-.22 2.766-1.985 2.766-1.86 0-2.078-2.125-2.078-3.781v-.703ZM3.328-7.561v-.25c0-1.625.485-3.188 2.078-3.188 1.407 0 1.907 1.203 1.907 2.766v.672Zm0 0" style="stroke:none"/></symbol><symbol id="m" overflow="visible"><path d="M8.875-8.766v-.546c0-1.547-.703-3.391-3.86-3.391-2.546 0-4.234 1.094-4.234 3.406 0 1.985.782 2.922 2.64 3.563l2.032.718c.875.297 1.36.907 1.36 1.813 0 1.14-.672 1.828-2.032 1.828-1.422 0-1.922-.781-1.922-2.219v-.39H.641v.468c0 2.391.953 3.844 4.078 3.844 2.5 0 4.437-1.14 4.437-3.781 0-1.953-.86-2.938-2.687-3.563l-1.594-.546c-1.312-.47-1.75-.86-1.75-1.829 0-1.14.781-1.609 1.781-1.609 1.282 0 1.625.922 1.625 1.922v.312Zm0 0" style="stroke:none"/></symbol><symbol id="n" overflow="visible"><path d="M7.516 0h2.343v-12.375H7.391v8.656c0 1.375-.97 2.063-2.032 2.063S3.688-2.11 3.688-3.5v-8.875H1.203v8.656C1.203-.53 2.438.328 4.281.328c1.375 0 2.547-.672 3.172-1.781h.063Zm0 0" style="stroke:none"/></symbol><symbol id="o" overflow="visible"><path d="M1.36 0h2.484v-12.562h.047L8.64 0h3.203v-16.422H9.359v12.235h-.046L4.547-16.422H1.359Zm0 0" style="stroke:none"/></symbol><symbol id="p" overflow="visible"><path d="M1.453 0h2.625v-3.031H1.453Zm0 0" style="stroke:none"/></symbol><symbol id="q" overflow="visible"><path d="M7.39 0v-16.281H5.47v.312c-.454 2.079-2.267 2.439-3.83 2.439h-.266v1.703h3.39V0Zm0 0" style="stroke:none"/></symbol><symbol id="r" overflow="visible"><path d="M1.36 0h2.624v-7.64h4.829V0h2.624v-16.422H8.814v6.578h-4.83v-6.578H1.36Zm0 0" style="stroke:none"/></symbol><symbol id="s" overflow="visible"><path d="M6.39.328c3.782 0 5.438-2.672 5.438-8.547 0-5.86-1.656-8.531-5.437-8.531-3.766 0-5.422 2.672-5.422 8.531C.969-2.344 2.625.328 6.39.328m0-1.984c-1.562 0-2.796-.969-2.796-6.625 0-5.516 1.234-6.485 2.797-6.485 1.562 0 2.812.97 2.812 6.485 0 5.656-1.25 6.625-2.812 6.625m0 0" style="stroke:none"/></symbol><symbol id="t" overflow="visible"><path d="M1.36 0h9.062v-2.203H3.984v-5.25H9.86v-2.203H3.984v-4.563h6.25v-2.203H1.36Zm0 0" style="stroke:none"/></symbol><symbol id="u" overflow="visible"><path d="M1.36 0h2.624v-7.125h2.141c1.781 0 2.344.781 2.39 2.578.047 1.188.016 2.11.11 3.094.063.64.188 1.156.438 1.453h2.968c-.344-.234-.734-.625-.781-1.422-.047-1-.078-2.281-.094-3.344-.094-2.296-.937-3.187-2.578-3.359v-.047c1.797-.265 2.735-1.906 2.735-4.015 0-3.079-1.86-4.235-4.157-4.235H1.36Zm2.624-9.11v-5.328h2.22c1.734 0 2.484.907 2.484 2.657 0 1.656-.938 2.672-2.61 2.672Zm0 0" style="stroke:none"/></symbol><symbol id="v" overflow="visible"><path d="M1.156-16.422v11.563c0 3.797 1.875 5.187 5.032 5.187 3.125 0 5.015-1.39 5.015-5.187v-11.563H8.578V-4.64c0 2.063-.828 2.985-2.39 2.985-1.594 0-2.422-.922-2.422-2.985v-11.78Zm0 0" style="stroke:none"/></symbol><symbol id="w" overflow="visible"><path d="M1.063 0h8.968v-2.203H3.687v-14.219H1.064Zm0 0" style="stroke:none"/></symbol><symbol id="x" overflow="visible"><path d="m4.078-6.125 1.953-8.094h.047l1.875 8.094ZM-.203 0H2.53l1.063-4.031H8.39L9.406 0h2.735L7.813-16.422H4.469Zm0 0" style="stroke:none"/></symbol><symbol id="y" overflow="visible"><path d="M4.047 0h2.625v-14.219h3.844v-2.203H.14v2.203h3.906Zm0 0" style="stroke:none"/></symbol><symbol id="z" overflow="visible"><path d="M3.984-14.437h2.157c2.28 0 3.062 1.609 3.062 6.218 0 4.813-.906 6.235-3.062 6.235H3.984ZM1.36 0h4.672c5.14 0 5.797-3.36 5.797-8.219 0-4.844-.656-8.203-5.797-8.203H1.36Zm0 0" style="stroke:none"/></symbol><symbol id="az" overflow="visible"><path d="M4.14 0h2.626v-6.422l4.39-10H8.422L5.594-9.344l-2.766-7.078H-.094l4.235 10Zm0 0" style="stroke:none"/></symbol><symbol id="aA" overflow="visible"><path d="M.766-5.078v.39C.766-2.39 1.672.329 5.75.329c3.313 0 5.422-1.453 5.422-4.953 0-2.25-1-3.516-3.328-4.344l-1.766-.64C4.328-10.281 3.61-11 3.61-12.391c0-1.75 1.079-2.375 2.204-2.375 1.64 0 2.312.875 2.312 2.375v.344h2.61v-.375c0-1.703-.438-4.328-4.641-4.328-3.078 0-5.11 1.656-5.11 4.656 0 2.344 1.047 3.578 3.438 4.5l1.781.625c1.484.438 2.36 1.203 2.36 2.922 0 1.219-.829 2.39-2.485 2.39-1.828 0-2.703-1.015-2.703-3.015v-.406Zm0 0" style="stroke:none"/></symbol><symbol id="A" overflow="visible"><path d="M9.953-12.219c0-2.922-1.39-4.484-4.453-4.484-2.86 0-4.531 1.781-4.531 4.36 0 5.952 7.953 3.171 7.953 8.046C8.922-2 7.453-.969 5.375-.969c-2.156 0-3.266-1.406-3.266-3.5v-.61H.641v.485C.64-1.375 2.344.281 5.42.281c3 0 4.97-1.64 4.97-4.812 0-5.766-7.953-3.078-7.953-7.985 0-1.625 1.109-2.937 3.109-2.937s2.937 1.219 2.937 3.234Zm0 0" style="stroke:none"/></symbol><symbol id="B" overflow="visible"><path d="M1.328 0h1.39v-8.219c0-1.875 1.079-3.125 2.688-3.125 1.407 0 2.094.828 2.094 2.516V0h1.375v-9.219c0-2.297-1.266-3.265-3.125-3.265-1.453 0-2.64.734-2.984 1.968h-.047v-5.906h-1.39Zm0 0" style="stroke:none"/></symbol><symbol id="C" overflow="visible"><path d="M2.469-8.578c0-1.766.703-2.766 2.344-2.766 1.234 0 2.109.563 2.109 2.125 0 1.422-.203 1.656-1.172 1.922l-2.594.734C1.422-6.077.688-4.78.688-3.171c0 2.11.968 3.453 3.109 3.453 1.36 0 2.594-.468 3.156-2.078h.031v.422c0 1.266.704 1.516 1.782 1.516.187 0 .39-.047.64-.141v-1.016h-.39c-.485 0-.72-.312-.72-1.015v-7.22c0-1.922-.905-3.234-3.437-3.234-2.578 0-3.78 1.39-3.78 3.906Zm4.453 4.25c0 2.187-1.156 3.453-2.828 3.453-1.203 0-1.938-.969-1.938-2.39 0-1.454.719-2.157 2.094-2.532l1.156-.297c.547-.14 1.328-.39 1.469-.812h.047Zm0 0" style="stroke:none"/></symbol><symbol id="D" overflow="visible"><path d="M1.422 0h1.39v-16.422h-1.39Zm0 0" style="stroke:none"/></symbol><symbol id="F" overflow="visible"><path d="M1.844-2c0 1.625.703 2.14 2.578 2.14.453 0 .797-.046.953-.14v-1.156c-.297.093-.562.14-.844.14-.89 0-1.312-.312-1.312-1.28v-8.766h2.156v-1.157H3.219v-3.375H1.844v3.375H.156v1.156h1.688Zm0 0" style="stroke:none"/></symbol><symbol id="G" overflow="visible"><path d="M7.469-4.047C7.25-1.907 6.344-.875 4.906-.875c-1.36 0-2.61-1.078-2.61-4.594v-.578H8.97v-.516c0-4.062-1.219-5.921-3.938-5.921-2.687 0-4.203 2.14-4.203 6.359 0 4.61 1.516 6.406 4.094 6.406 2.297 0 3.719-1.734 3.937-4.328ZM2.297-7.203c.047-3.031.906-4.14 2.61-4.14 1.687 0 2.546 1.109 2.593 4.14Zm0 0" style="stroke:none"/></symbol><symbol id="H" overflow="visible"><path d="M9.172 0h1.484v-16.422H9.172v6.985H2.766v-6.985H1.28V0h1.485v-8.187h6.406Zm0 0" style="stroke:none"/></symbol><symbol id="I" overflow="visible"><path d="M.688-6.125C.688-1.859 2.202.281 4.906.281c2.688 0 4.203-2.14 4.203-6.406 0-4.219-1.515-6.36-4.203-6.36-2.703 0-4.218 2.141-4.218 6.36m1.468 0c0-3.875 1.203-5.219 2.75-5.219 1.532 0 2.735 1.344 2.735 5.219 0 3.922-1.203 5.25-2.735 5.25-1.547 0-2.75-1.328-2.75-5.25m0 0" style="stroke:none"/></symbol><symbol id="J" overflow="visible"><path d="M1.422 0h1.39v-8.219c0-1.875 1.094-3.125 2.485-3.125 1.234 0 1.906.766 1.906 2.219V0h1.375v-8.219c0-1.875 1.11-3.125 2.485-3.125 1.25 0 1.906.766 1.906 2.219V0h1.39v-9.344c0-2.172-1.14-3.14-2.843-3.14-1.563 0-2.547.78-3.094 2.14h-.047c-.187-1.25-1.078-2.14-2.562-2.14-1.344 0-2.454.609-3.094 1.968h-.047v-1.703h-1.25Zm0 0" style="stroke:none"/></symbol><symbol id="K" overflow="visible"><path d="M1.281 0h1.485v-7.5h2.78c2.641 0 3.173.922 3.266 3.813l.047 1.39c.016.875.094 1.719.438 2.297h1.719c-.578-.64-.672-1.516-.688-2.422l-.047-1.781c-.062-2.531-.765-3.703-2.812-3.89v-.048c2.187-.421 2.968-2.187 2.968-4.171 0-2.547-1.515-4.11-4.25-4.11H1.282Zm1.485-15.187h2.687c2.672 0 3.516 1.218 3.516 3.234 0 2.156-1.36 3.219-3.672 3.219H2.766Zm0 0" style="stroke:none"/></symbol><symbol id="L" overflow="visible"><path d="M1.328-2.984C1.328-.687 2.594.28 4.468.28c1.235 0 2.438-.625 3.126-1.984h.047V0h1.234v-12.219H7.5V-4c0 1.89-1.11 3.125-2.672 3.125-1.453 0-2.11-.766-2.11-2.734v-8.61h-1.39Zm0 0" style="stroke:none"/></symbol><symbol id="M" overflow="visible"><path d="M9.797-5.562C9.64-2.734 8.469-.97 6.39-.97c-2.344 0-3.766-1.922-3.766-7.25 0-5.312 1.422-7.234 3.766-7.234 2.125 0 3.25 1.578 3.25 3.812h1.468c0-2.687-1.375-5.062-4.718-5.062-3.36 0-5.235 2.61-5.235 8.484 0 5.89 1.875 8.5 5.235 8.5 2.953 0 4.672-2.093 4.875-5.843Zm0 0" style="stroke:none"/></symbol><symbol id="N" overflow="visible"><path d="M1.328 0h1.39v-7.64c0-2.36 1.423-3.47 2.938-3.47.203 0 .438.016.672.063v-1.375a1.8 1.8 0 0 0-.484-.062c-1.422 0-2.563.828-3.078 2.187h-.047v-1.922h-1.39Zm0 0" style="stroke:none"/></symbol><symbol id="O" overflow="visible"><path d="M1.844 0h1.375v-11.062h2.156v-1.157H3.219v-1.437c0-1.406.484-1.797 1.5-1.797.25 0 .453.015.656.062v-1.14a4 4 0 0 0-.86-.078c-2.327 0-2.671 1.265-2.671 2.953v1.437H.156v1.156h1.688Zm0 0" style="stroke:none"/></symbol><symbol id="P" overflow="visible"><path d="M1.422 0h1.39v-12.219h-1.39Zm0-14.078h1.39v-2.344h-1.39Zm0 0" style="stroke:none"/></symbol><symbol id="Q" overflow="visible"><path d="m3.688.11-.36 1.156c-.39 1.28-.953 1.625-1.812 1.625-.297 0-.594-.016-.891-.032V4c.266.031.547.047.922.047 1.86 0 2.594-.672 3.234-3.063l3.563-13.203H6.875L4.422-1.64h-.047L1.641-12.219H.156Zm0 0" style="stroke:none"/></symbol><symbol id="R" overflow="visible"><path d="M1.281 0h1.485v-7.953H9v-1.25H2.766v-5.985h6.672v-1.234H1.28Zm0 0" style="stroke:none"/></symbol><symbol id="S" overflow="visible"><path d="M7.64-10.328h-.046c-.438-1.375-1.516-2.156-2.86-2.156-2.687 0-3.906 2.156-3.906 6.359C.828-1.235 2.718 0 4.594 0c1.265 0 2.422-.687 2.86-2.187H7.5V-.25c0 2.156-.906 3.328-2.578 3.328-1.219 0-2.297-.687-2.297-1.844h-1.39c.03 1.75 1.265 3 3.64 3 2.766 0 4-1.734 4-5.109v-11.344H7.641ZM2.298-6.25c0-3.89.969-5.094 2.61-5.094C6.53-11.344 7.5-10.14 7.5-6.25c0 3.906-.969 5.094-2.594 5.094-1.64 0-2.61-1.188-2.61-5.094m0 0" style="stroke:none"/></symbol><symbol id="T" overflow="visible"><path d="M1.203 0h1.235v-2.031h.046C2.86-.625 4.031.28 5.47.28c2.702.001 3.92-2.17 3.92-6.405 0-4.203-1.22-6.36-3.922-6.36-1.516 0-2.547.829-2.844 2.11h-.047v-6.047H1.203Zm1.375-6.125c0-4.5 1.266-5.219 2.672-5.219 1.375 0 2.656.719 2.656 5.219 0 4.531-1.281 5.25-2.656 5.25-1.406 0-2.672-.719-2.672-5.25m0 0" style="stroke:none"/></symbol><symbol id="U" overflow="visible"><path d="M1.328 0h1.39v-8.219c0-1.875 1.079-3.125 2.688-3.125 1.407 0 2.094.828 2.094 2.516V0h1.375v-9.219c0-2.297-1.266-3.265-3.125-3.265-1.234 0-2.437.609-3.125 1.968h-.047v-1.703h-1.25Zm0 0" style="stroke:none"/></symbol><symbol id="V" overflow="visible"><path d="M7.781 0h1.235v-16.422H7.64v6.047h-.047c-.297-1.281-1.344-2.11-2.86-2.11-2.687 0-3.906 2.157-3.906 6.36C.828-1.891 2.047.281 4.734.281c1.454 0 2.625-.906 3-2.312h.047ZM2.297-6.125c0-4.5 1.297-5.219 2.672-5.219 1.406 0 2.672.719 2.672 5.219 0 4.531-1.266 5.25-2.672 5.25-1.375 0-2.672-.719-2.672-5.25m0 0" style="stroke:none"/></symbol><symbol id="W" overflow="visible"><path d="M5.203-5.312c1.219.484 1.656 1.171 1.656 2.25 0 1.359-.953 2.187-2.421 2.187-1.563 0-2.344-.922-2.344-2.719v-.312H.719v.39c0 2.75 1.234 3.797 3.75 3.797 2.562 0 3.765-1.547 3.765-3.64 0-1.328-.625-2.485-2.28-3.11l-2-.75C2.577-7.75 2.296-8.422 2.296-9.266c0-1.218.625-2.078 2.234-2.078 1.266 0 2 .672 2 2.266v.344h1.375v-.344c0-2.235-1.047-3.406-3.36-3.406-2.062 0-3.624 1-3.624 3.515 0 1.219.625 2.235 2.344 2.89Zm0 0" style="stroke:none"/></symbol><symbol id="X" overflow="visible"><path d="M1.906-10.906H3.47v-2.344h-.656c.015-1.234.203-1.89.796-2.25v-.922c-1.421.531-1.703 1.813-1.703 3.172Zm0 0" style="stroke:none"/></symbol><symbol id="Y" overflow="visible"><path d="M6.984 0h1.391v-12.219h-1.39Zm0-14.078h1.391v-2.344h-1.39ZM1.844 0h1.375v-11.062h2.156v-1.157H3.219v-1.437c0-1.406.484-1.797 1.5-1.797.25 0 .453.015.656.062v-1.14a4 4 0 0 0-.86-.078c-2.327 0-2.671 1.265-2.671 2.953v1.437H.156v1.156h1.688Zm0 0" style="stroke:none"/></symbol><symbol id="Z" overflow="visible"><path d="M7.297-4.047c-.234 2.14-1.14 3.172-2.531 3.172-1.297 0-2.61-.625-2.61-5.219 0-4.328 1.25-5.25 2.75-5.25 1.469 0 2.219.86 2.39 2.766h1.376c-.14-2.516-1.469-3.906-3.766-3.906-2.703 0-4.218 2.14-4.218 6.359C.688-1.515 2.202.281 4.78.281c2.25 0 3.688-1.734 3.89-4.328Zm0 0" style="stroke:none"/></symbol><symbol id="aa" overflow="visible"><path d="M2.938 0h1.64l2.203-10.828h.047L9.031 0h1.64l2.72-12.219h-1.485L9.844-1.375h-.047L7.734-12.219H6.031L3.813-1.375h-.047L1.703-12.219H.234Zm0 0" style="stroke:none"/></symbol><symbol id="ab" overflow="visible"><path d="M3.563 0h1.562l3.219-12.219H6.875L4.391-1.562h-.047L1.64-12.22H.156Zm0 0" style="stroke:none"/></symbol><symbol id="ac" overflow="visible"><path d="M1.203 4.047h1.375v-5.89h.047C2.922-.548 3.953.28 5.469.28 8.172.281 9.39-1.89 9.39-6.094c0-4.234-1.172-6.39-3.891-6.39-1.562 0-2.578.89-3.016 2.015h-.046v-1.75H1.203Zm6.703-10.14c0 4.5-1.281 5.218-2.656 5.218-1.406 0-2.672-.719-2.672-5.219 0-2.125.188-3.312.781-4.172.454-.656 1.157-1.078 1.938-1.078 1.328 0 2.61.813 2.61 5.25m0 0" style="stroke:none"/></symbol><symbol id="ad" overflow="visible"><path d="M1.984 0h1.563v-2.344H1.984Zm0 0" style="stroke:none"/></symbol><symbol id="ae" overflow="visible"><path d="M2.047-14.078h.672c-.031 1.25-.219 1.89-.813 2.25v.922c1.422-.531 1.703-1.813 1.703-3.172v-2.344H2.047Zm0 0" style="stroke:none"/></symbol><symbol id="af" overflow="visible"><path d="M1.984 0h.657c-.016 1.234-.203 1.89-.797 2.25v.922C3.266 2.64 3.547 1.359 3.547 0v-2.344H1.984Zm0 0" style="stroke:none"/></symbol><symbol id="ag" overflow="visible"><path d="M1.203 0h1.375v-4.281l1.813-2.157L8.03 0h1.703L5.375-7.687l3.688-4.532H7.359L2.625-6.14h-.047v-10.28H1.203Zm0 0" style="stroke:none"/></symbol><symbol id="ah" overflow="visible"><path d="m3.203-6.031 2.531-9.235h.032l2.53 9.235ZM-.016 0h1.563l1.328-4.781h5.75L9.953 0h1.563L6.672-16.422H4.828Zm0 0" style="stroke:none"/></symbol><symbol id="ai" overflow="visible"><path d="M1.281 0h1.485v-14.312h.046L9.079 0h1.985v-16.422h-1.47v14.313h-.046L3.266-16.422H1.28Zm0 0" style="stroke:none"/></symbol><symbol id="aj" overflow="visible"><path d="M2.766-15.187h2.5c2.25 0 3.5.953 3.5 3.406 0 2.531-1.547 3.406-3.5 3.406h-2.5ZM1.28 0h1.485v-7.125h2.453c3.75 0 5.015-2.125 5.015-4.656 0-2.781-1.328-4.64-4.5-4.64H1.281Zm0 0" style="stroke:none"/></symbol><symbol id="ak" overflow="visible"><path d="M4.375 0h1.469v-15.187h4.234v-1.235H.141v1.235h4.234Zm0 0" style="stroke:none"/></symbol><symbol id="al" overflow="visible"><path d="M1.281 0h8.36v-1.234H2.766v-6.72H9v-1.25H2.766v-5.983h6.672v-1.235H1.28Zm0 0" style="stroke:none"/></symbol><symbol id="am" overflow="visible"><path d="M1.156-8.219c0 5.89 1.875 8.5 5.235 8.5 3.359 0 5.25-2.61 5.25-8.5 0-5.875-1.891-8.484-5.25-8.484s-5.235 2.61-5.235 8.484m1.469 0c0-5.312 1.422-7.234 3.766-7.234 2.343 0 3.78 1.922 3.78 7.234 0 5.328-1.437 7.25-3.78 7.25S2.625-2.89 2.625-8.219m0 0" style="stroke:none"/></symbol><symbol id="an" overflow="visible"><path d="M1.063-4.594C1.063-1.156 2.734.281 5.75.281s4.688-1.437 4.688-4.875v-11.828h-1.47v11.797c0 2.469-1.062 3.656-3.218 3.656S2.531-2.156 2.531-4.625v-11.797H1.062Zm0 0" style="stroke:none"/></symbol><symbol id="ao" overflow="visible"><path d="M1.422 0H2.89v-15.047h.046L7.204 0h1.375l4.25-15.047h.047V0h1.484v-16.422h-2.421L7.983-1.844h-.046L3.984-16.422H1.422Zm0 0" style="stroke:none"/></symbol><symbol id="ap" overflow="visible"><path d="M4.297-7.89h1.078c1.984 0 3.25 1.156 3.25 3.265 0 2.734-1.547 3.75-3.203 3.75-2.094 0-3.078-1.562-3.078-3.469H.875C.985-1.312 2.625.281 5.422.281c3.062 0 4.672-2 4.672-4.953 0-2-1.172-3.578-3.11-3.86v-.046c1.782-.438 2.625-1.89 2.625-3.688 0-2.5-1.656-4.015-4.156-4.015-2.875 0-4.344 1.797-4.344 4.5h1.47c.015-2.297 1.233-3.36 2.874-3.36 1.766 0 2.688 1.172 2.688 3.063 0 1.937-1.125 3.047-3.078 3.047h-.766Zm0 0" style="stroke:none"/></symbol><symbol id="aq" overflow="visible"><path d="M2.547-11.172c.094-2.719 1.14-3.969 3-3.969 1.672 0 2.875 1.172 2.875 3.344 0 1.563-.625 2.672-2.266 4.047L4.422-6.281C2.234-4.438 1.016-2.688 1.016 0h9.015v-1.234H2.578C2.828-2.937 3.718-4 5.422-5.406L7.203-6.86c2.094-1.72 2.688-3.032 2.688-5.016 0-3.094-2-4.406-4.203-4.406-3.063 0-4.563 1.953-4.61 5.11Zm0 0" style="stroke:none"/></symbol><symbol id="ar" overflow="visible"><path d="M2.422-8c0-5.219.86-7.14 3.094-7.14S8.625-13.22 8.625-8 7.75-.875 5.515-.875 2.423-2.781 2.423-8M.937-8c0 4.797.876 8.281 4.579 8.281S10.094-3.203 10.094-8c0-4.812-.875-8.281-4.578-8.281S.938-12.813.938-8m0 0" style="stroke:none"/></symbol><symbol id="as" overflow="visible"><path d="M5.297 0h1.375v-16.281H5.609c-.093 1.703-1.312 2.781-4.046 2.797v1.015h3.734Zm0 0" style="stroke:none"/></symbol><symbol id="at" overflow="visible"><path d="M2.422-4.484c0-1.985 1.031-3.641 3.094-3.641 2.078 0 3.109 1.656 3.109 3.64 0 1.954-1.031 3.61-3.11 3.61-2.062 0-3.093-1.656-3.093-3.61m-1.485-.11C.938-1.516 2.814.281 5.517.281c2.734 0 4.578-1.797 4.578-4.875 0-1.922-.938-3.828-2.938-4.031v-.047c1.625-.406 2.453-2.047 2.453-3.594 0-2.656-1.703-4.015-4.093-4.015-2.36 0-4.094 1.36-4.094 4.015 0 1.547.86 3.188 2.469 3.594v.047c-2 .203-2.953 2.11-2.953 4.031m1.954-7.593c0-1.75.875-2.954 2.625-2.954 1.78 0 2.625 1.204 2.625 2.954 0 1.718-.844 2.921-2.625 2.921-1.75 0-2.625-1.203-2.625-2.921m0 0" style="stroke:none"/></symbol><symbol id="au" overflow="visible"><path d="M5.25-4.25v-.656c0-1.344.344-2.11 1.281-3.094l.985-1.062c1.203-1.266 1.5-2.422 1.5-3.61 0-2.39-1.594-4.031-4.141-4.031-2.937 0-4.297 2.172-4.328 5.015H2.03c0-2.453.953-3.859 2.938-3.859 1.562 0 2.578 1.219 2.578 2.844 0 .875-.328 1.984-1.203 2.922l-.969 1.047C4.203-7.5 3.859-6.766 3.859-5.062v.812ZM3.766 0h1.578v-2.344H3.766Zm0 0" style="stroke:none"/></symbol><symbol id="av" overflow="visible"><path d="M1.281 0h8.282v-1.234H2.766v-15.188H1.28Zm0 0" style="stroke:none"/></symbol><symbol id="aw" overflow="visible"><path d="M1.281 0H5.25c4.781 0 5.953-2.86 5.953-8.219 0-5.344-1.172-8.203-5.953-8.203H1.281Zm1.485-15.187h2.39c3.219 0 4.578 1.624 4.578 7 0 5.328-1.359 6.953-4.578 6.953h-2.39Zm0 0" style="stroke:none"/></symbol><symbol id="ax" overflow="visible"><path d="M2.766-15.187h2.578c2.297 0 3.422.812 3.422 3 0 1.906-1.157 2.984-3.688 2.984H2.766Zm0 7.234H5.5c2.547 0 3.797 1.14 3.797 3.36 0 2.202-1.25 3.359-3.797 3.359H2.766ZM1.28 0h4.516c3.11 0 4.969-1.719 4.969-4.594 0-2.14-1.032-3.703-3.063-4.093v-.047c1.656-.422 2.531-1.953 2.531-3.578 0-2.438-1.234-4.11-4.421-4.11H1.28Zm0 0" style="stroke:none"/></symbol><symbol id="ay" overflow="visible"><path d="M4.39 0h1.844l4.329-16.422H9L5.344-1.562h-.047L1.64-16.422H.063Zm0 0" style="stroke:none"/></symbol><symbol id="aB" overflow="visible"><path d="M.406 0h7.282v-1.156H1.89l5.797-9.906v-1.157H.718v1.156h5.485L.406-1.155Zm0 0" style="stroke:none"/></symbol><symbol id="aC" overflow="visible"><path d="M1.422.969c0 1.703-.531 2.11-1.484 2.11-.22 0-.375-.048-.532-.063v1.14c.219.047.485.078.75.078 1.485 0 2.657-.718 2.657-2.812v-13.64H1.422Zm0-15.047h1.39v-2.344h-1.39Zm0 0" style="stroke:none"/></symbol><clipPath id="aD"><path d="M71.5 579.277h67.133v25.325H71.5Zm0 0"/></clipPath><clipPath id="aE"><path d="M71.5 662.879h67.133v25.32H71.5Zm0 0"/></clipPath></defs><path d="M0 0h612v792H0z" style="fill:#fff;fill-opacity:1;stroke:none"/><g style="fill:#000;fill-opacity:1"><use xlink:href="#a" x="72" y="96"/><use xlink:href="#b" x="82.649" y="96"/><use xlink:href="#c" x="93.298" y="96"/></g><g style="fill:#000;fill-opacity:1"><use xlink:href="#d" x="100.405" y="96"/><use xlink:href="#e" x="111.468" y="96"/><use xlink:href="#f" x="122.117" y="96"/><use xlink:href="#g" x="127.637" y="96"/><use xlink:href="#h" x="139.574" y="96"/><use xlink:href="#i" x="144.68" y="96"/><use xlink:href="#j" x="151.074" y="96"/><use xlink:href="#f" x="160.872" y="96"/><use xlink:href="#k" x="166.392" y="96"/><use xlink:href="#l" x="182.998" y="96"/><use xlink:href="#b" x="193.647" y="96"/><use xlink:href="#m" x="204.296" y="96"/><use xlink:href="#n" x="214.094" y="96"/><use xlink:href="#c" x="225.157" y="96"/></g><g style="fill:#000;fill-opacity:1"><use xlink:href="#l" x="232.264" y="96"/><use xlink:href="#f" x="242.913" y="96"/><use xlink:href="#o" x="248.433" y="96"/><use xlink:href="#e" x="261.635" y="96"/></g><g style="fill:#000;fill-opacity:1"><use xlink:href="#p" x="271.87" y="96"/><use xlink:href="#f" x="277.39" y="96"/><use xlink:href="#q" x="282.91" y="96"/><use xlink:href="#f" x="293.95" y="96"/></g><g style="fill:#000;fill-opacity:1"><use xlink:href="#r" x="72" y="124"/><use xlink:href="#s" x="84.788" y="124"/><use xlink:href="#k" x="97.576" y="124"/><use xlink:href="#t" x="114.182" y="124"/><use xlink:href="#f" x="125.245" y="124"/><use xlink:href="#u" x="130.765" y="124"/><use xlink:href="#v" x="143.116" y="124"/><use xlink:href="#w" x="155.467" y="124"/><use xlink:href="#t" x="165.679" y="124"/><use xlink:href="#f" x="176.742" y="124"/><use xlink:href="#g" x="182.262" y="124"/><use xlink:href="#r" x="194.199" y="124"/><use xlink:href="#x" x="206.987" y="124"/><use xlink:href="#u" x="218.924" y="124"/></g><g style="fill:#000;fill-opacity:1"><use xlink:href="#y" x="230.861" y="124"/><use xlink:href="#t" x="241.51" y="124"/><use xlink:href="#u" x="252.573" y="124"/><use xlink:href="#f" x="264.924" y="124"/></g><g style="fill:#000;fill-opacity:1"><use xlink:href="#x" x="269.593" y="124"/><use xlink:href="#k" x="281.53" y="124"/><use xlink:href="#t" x="298.136" y="124"/><use xlink:href="#o" x="309.199" y="124"/><use xlink:href="#z" x="322.401" y="124"/><use xlink:href="#k" x="335.189" y="124"/><use xlink:href="#t" x="351.795" y="124"/><use xlink:href="#o" x="362.858" y="124"/><use xlink:href="#y" x="376.06" y="124"/><use xlink:href="#f" x="386.709" y="124"/></g><g style="fill:#000;fill-opacity:1"><use xlink:href="#A" x="72" y="180"/><use xlink:href="#B" x="83.04" y="180"/><use xlink:href="#C" x="93.252" y="180"/><use xlink:href="#D" x="103.05" y="180"/><use xlink:href="#D" x="107.282" y="180"/><use xlink:href="#E" x="111.514" y="180"/><use xlink:href="#F" x="117.034" y="180"/><use xlink:href="#B" x="122.577" y="180"/><use xlink:href="#G" x="132.789" y="180"/><use xlink:href="#E" x="142.587" y="180"/><use xlink:href="#H" x="148.107" y="180"/><use xlink:href="#I" x="160.044" y="180"/><use xlink:href="#J" x="169.842" y="180"/><use xlink:href="#G" x="185.62" y="180"/><use xlink:href="#E" x="195.418" y="180"/><use xlink:href="#K" x="200.938" y="180"/><use xlink:href="#L" x="212.438" y="180"/><use xlink:href="#D" x="222.65" y="180"/><use xlink:href="#G" x="226.882" y="180"/><use xlink:href="#E" x="236.68" y="180"/><use xlink:href="#M" x="242.2" y="180"/><use xlink:href="#B" x="254.137" y="180"/><use xlink:href="#C" x="264.349" y="180"/><use xlink:href="#N" x="274.147" y="180"/><use xlink:href="#F" x="280.541" y="180"/><use xlink:href="#G" x="286.084" y="180"/><use xlink:href="#N" x="295.882" y="180"/><use xlink:href="#E" x="302.276" y="180"/><use xlink:href="#I" x="307.796" y="180"/><use xlink:href="#O" x="317.594" y="180"/><use xlink:href="#E" x="323.137" y="180"/><use xlink:href="#F" x="328.657" y="180"/><use xlink:href="#B" x="334.2" y="180"/><use xlink:href="#G" x="344.412" y="180"/><use xlink:href="#E" x="354.21" y="180"/><use xlink:href="#M" x="359.73" y="180"/><use xlink:href="#P" x="371.667" y="180"/><use xlink:href="#F" x="375.899" y="180"/><use xlink:href="#Q" x="381.442" y="180"/><use xlink:href="#E" x="389.952" y="180"/><use xlink:href="#I" x="395.472" y="180"/><use xlink:href="#O" x="405.27" y="180"/><use xlink:href="#E" x="410.813" y="180"/><use xlink:href="#R" x="416.333" y="180"/><use xlink:href="#C" x="426.131" y="180"/><use xlink:href="#N" x="435.929" y="180"/><use xlink:href="#S" x="442.323" y="180"/><use xlink:href="#I" x="452.535" y="180"/><use xlink:href="#E" x="462.333" y="180"/><use xlink:href="#T" x="467.853" y="180"/><use xlink:href="#G" x="478.065" y="180"/><use xlink:href="#E" x="487.863" y="180"/></g><g style="fill:#000;fill-opacity:1"><use xlink:href="#C" x="72" y="208"/><use xlink:href="#J" x="81.798" y="208"/><use xlink:href="#G" x="97.576" y="208"/><use xlink:href="#U" x="107.374" y="208"/><use xlink:href="#V" x="117.586" y="208"/><use xlink:href="#G" x="127.798" y="208"/><use xlink:href="#V" x="137.596" y="208"/><use xlink:href="#E" x="147.808" y="208"/><use xlink:href="#W" x="153.328" y="208"/><use xlink:href="#I" x="162.275" y="208"/><use xlink:href="#E" x="172.073" y="208"/><use xlink:href="#F" x="177.593" y="208"/><use xlink:href="#B" x="183.136" y="208"/><use xlink:href="#C" x="193.348" y="208"/><use xlink:href="#F" x="203.146" y="208"/><use xlink:href="#E" x="208.689" y="208"/></g><g style="fill:#000;fill-opacity:1"><use xlink:href="#X" x="213.358" y="208"/><use xlink:href="#M" x="218.878" y="208"/><use xlink:href="#P" x="230.815" y="208"/><use xlink:href="#F" x="235.047" y="208"/><use xlink:href="#Q" x="240.59" y="208"/><use xlink:href="#E" x="249.1" y="208"/><use xlink:href="#I" x="254.62" y="208"/><use xlink:href="#O" x="264.418" y="208"/><use xlink:href="#Y" x="269.961" y="208"/><use xlink:href="#Z" x="279.759" y="208"/><use xlink:href="#P" x="289.12" y="208"/><use xlink:href="#C" x="293.352" y="208"/><use xlink:href="#D" x="303.15" y="208"/><use xlink:href="#W" x="307.382" y="208"/><use xlink:href="#E" x="316.329" y="208"/><use xlink:href="#aa" x="321.849" y="208"/><use xlink:href="#P" x="335.465" y="208"/><use xlink:href="#D" x="339.697" y="208"/><use xlink:href="#D" x="343.929" y="208"/><use xlink:href="#E" x="348.161" y="208"/><use xlink:href="#T" x="353.681" y="208"/><use xlink:href="#G" x="363.893" y="208"/><use xlink:href="#E" x="373.691" y="208"/><use xlink:href="#G" x="379.211" y="208"/><use xlink:href="#D" x="389.009" y="208"/><use xlink:href="#G" x="393.241" y="208"/><use xlink:href="#Z" x="403.039" y="208"/><use xlink:href="#F" x="412.4" y="208"/><use xlink:href="#G" x="417.943" y="208"/><use xlink:href="#V" x="427.741" y="208"/><use xlink:href="#E" x="437.953" y="208"/><use xlink:href="#W" x="443.473" y="208"/><use xlink:href="#I" x="452.42" y="208"/><use xlink:href="#E" x="462.218" y="208"/><use xlink:href="#F" x="467.738" y="208"/><use xlink:href="#B" x="473.281" y="208"/><use xlink:href="#C" x="483.493" y="208"/><use xlink:href="#F" x="493.291" y="208"/><use xlink:href="#E" x="498.834" y="208"/></g><g style="fill:#000;fill-opacity:1"><use xlink:href="#G" x="72" y="236"/><use xlink:href="#C" x="81.798" y="236"/><use xlink:href="#Z" x="91.596" y="236"/><use xlink:href="#B" x="100.957" y="236"/><use xlink:href="#E" x="111.169" y="236"/><use xlink:href="#ab" x="116.689" y="236"/><use xlink:href="#I" x="125.199" y="236"/><use xlink:href="#F" x="134.997" y="236"/><use xlink:href="#G" x="140.54" y="236"/><use xlink:href="#N" x="150.338" y="236"/><use xlink:href="#E" x="156.732" y="236"/><use xlink:href="#J" x="162.252" y="236"/><use xlink:href="#C" x="178.03" y="236"/><use xlink:href="#Q" x="187.828" y="236"/><use xlink:href="#E" x="196.338" y="236"/><use xlink:href="#ab" x="201.858" y="236"/><use xlink:href="#I" x="210.368" y="236"/><use xlink:href="#F" x="220.166" y="236"/><use xlink:href="#G" x="225.709" y="236"/><use xlink:href="#E" x="235.507" y="236"/><use xlink:href="#O" x="241.027" y="236"/><use xlink:href="#I" x="246.57" y="236"/><use xlink:href="#N" x="256.368" y="236"/><use xlink:href="#E" x="262.762" y="236"/><use xlink:href="#C" x="268.282" y="236"/><use xlink:href="#D" x="278.08" y="236"/><use xlink:href="#D" x="282.312" y="236"/><use xlink:href="#E" x="286.544" y="236"/><use xlink:href="#F" x="292.064" y="236"/><use xlink:href="#B" x="297.607" y="236"/><use xlink:href="#G" x="307.819" y="236"/><use xlink:href="#E" x="317.617" y="236"/><use xlink:href="#Z" x="323.137" y="236"/><use xlink:href="#C" x="332.498" y="236"/><use xlink:href="#U" x="342.296" y="236"/><use xlink:href="#V" x="352.508" y="236"/><use xlink:href="#P" x="362.72" y="236"/><use xlink:href="#V" x="366.952" y="236"/><use xlink:href="#C" x="377.164" y="236"/><use xlink:href="#F" x="386.962" y="236"/><use xlink:href="#G" x="392.505" y="236"/><use xlink:href="#W" x="402.303" y="236"/><use xlink:href="#E" x="411.25" y="236"/><use xlink:href="#F" x="416.77" y="236"/><use xlink:href="#B" x="422.313" y="236"/><use xlink:href="#G" x="432.525" y="236"/><use xlink:href="#E" x="442.323" y="236"/><use xlink:href="#ab" x="447.843" y="236"/><use xlink:href="#I" x="456.353" y="236"/><use xlink:href="#F" x="466.151" y="236"/><use xlink:href="#G" x="471.694" y="236"/><use xlink:href="#N" x="481.492" y="236"/><use xlink:href="#E" x="487.886" y="236"/></g><g style="fill:#000;fill-opacity:1"><use xlink:href="#C" x="72" y="264"/><use xlink:href="#ac" x="81.798" y="264"/><use xlink:href="#ac" x="92.01" y="264"/><use xlink:href="#N" x="102.222" y="264"/><use xlink:href="#I" x="108.616" y="264"/><use xlink:href="#ab" x="118.414" y="264"/><use xlink:href="#G" x="126.924" y="264"/><use xlink:href="#W" x="136.722" y="264"/><use xlink:href="#E" x="145.669" y="264"/><use xlink:href="#I" x="151.189" y="264"/><use xlink:href="#O" x="160.987" y="264"/><use xlink:href="#E" x="166.53" y="264"/><use xlink:href="#P" x="172.05" y="264"/><use xlink:href="#U" x="176.282" y="264"/><use xlink:href="#E" x="186.494" y="264"/><use xlink:href="#G" x="192.014" y="264"/><use xlink:href="#C" x="201.812" y="264"/><use xlink:href="#Z" x="211.61" y="264"/><use xlink:href="#B" x="220.971" y="264"/><use xlink:href="#E" x="231.183" y="264"/><use xlink:href="#N" x="236.703" y="264"/><use xlink:href="#C" x="243.097" y="264"/><use xlink:href="#Z" x="252.895" y="264"/><use xlink:href="#G" x="262.256" y="264"/><use xlink:href="#ad" x="272.054" y="264"/></g><g style="fill:#000;fill-opacity:1"><use xlink:href="#E" x="276.723" y="264"/><use xlink:href="#M" x="282.243" y="264"/><use xlink:href="#C" x="294.18" y="264"/><use xlink:href="#U" x="303.978" y="264"/><use xlink:href="#V" x="314.19" y="264"/><use xlink:href="#P" x="324.402" y="264"/><use xlink:href="#V" x="328.634" y="264"/><use xlink:href="#C" x="338.846" y="264"/><use xlink:href="#F" x="348.644" y="264"/><use xlink:href="#G" x="354.187" y="264"/><use xlink:href="#W" x="363.985" y="264"/><use xlink:href="#E" x="372.932" y="264"/><use xlink:href="#N" x="378.452" y="264"/><use xlink:href="#G" x="384.846" y="264"/><use xlink:href="#Z" x="394.644" y="264"/><use xlink:href="#G" x="404.005" y="264"/><use xlink:href="#P" x="413.803" y="264"/><use xlink:href="#ab" x="418.035" y="264"/><use xlink:href="#P" x="426.545" y="264"/><use xlink:href="#U" x="430.777" y="264"/><use xlink:href="#S" x="440.989" y="264"/><use xlink:href="#E" x="451.201" y="264"/><use xlink:href="#F" x="456.721" y="264"/><use xlink:href="#B" x="462.264" y="264"/><use xlink:href="#G" x="472.476" y="264"/><use xlink:href="#E" x="482.274" y="264"/><use xlink:href="#J" x="487.794" y="264"/><use xlink:href="#I" x="503.572" y="264"/><use xlink:href="#W" x="513.37" y="264"/><use xlink:href="#F" x="522.317" y="264"/><use xlink:href="#E" x="527.86" y="264"/></g><g style="fill:#000;fill-opacity:1"><use xlink:href="#ab" x="72" y="292"/><use xlink:href="#I" x="80.51" y="292"/><use xlink:href="#F" x="90.308" y="292"/><use xlink:href="#G" x="95.851" y="292"/><use xlink:href="#W" x="105.649" y="292"/><use xlink:href="#E" x="114.596" y="292"/><use xlink:href="#aa" x="120.116" y="292"/><use xlink:href="#P" x="133.732" y="292"/><use xlink:href="#D" x="137.964" y="292"/><use xlink:href="#D" x="142.196" y="292"/><use xlink:href="#E" x="146.428" y="292"/><use xlink:href="#T" x="151.948" y="292"/><use xlink:href="#G" x="162.16" y="292"/><use xlink:href="#E" x="171.958" y="292"/><use xlink:href="#G" x="177.478" y="292"/><use xlink:href="#D" x="187.276" y="292"/><use xlink:href="#G" x="191.508" y="292"/><use xlink:href="#Z" x="201.306" y="292"/><use xlink:href="#F" x="210.667" y="292"/><use xlink:href="#G" x="216.21" y="292"/><use xlink:href="#V" x="226.008" y="292"/><use xlink:href="#E" x="236.22" y="292"/><use xlink:href="#L" x="241.74" y="292"/><use xlink:href="#U" x="251.952" y="292"/><use xlink:href="#F" x="262.164" y="292"/><use xlink:href="#P" x="267.707" y="292"/><use xlink:href="#D" x="271.939" y="292"/><use xlink:href="#E" x="276.171" y="292"/><use xlink:href="#C" x="281.691" y="292"/><use xlink:href="#D" x="291.489" y="292"/><use xlink:href="#D" x="295.721" y="292"/><use xlink:href="#E" x="299.953" y="292"/><use xlink:href="#U" x="305.473" y="292"/><use xlink:href="#G" x="315.685" y="292"/><use xlink:href="#Z" x="325.483" y="292"/><use xlink:href="#G" x="334.844" y="292"/><use xlink:href="#W" x="344.642" y="292"/><use xlink:href="#W" x="353.589" y="292"/><use xlink:href="#C" x="362.536" y="292"/><use xlink:href="#N" x="372.334" y="292"/></g><g style="fill:#000;fill-opacity:1"><use xlink:href="#Q" x="379.142" y="292"/><use xlink:href="#E" x="387.652" y="292"/><use xlink:href="#W" x="393.172" y="292"/><use xlink:href="#G" x="402.119" y="292"/><use xlink:href="#C" x="411.917" y="292"/><use xlink:href="#F" x="421.715" y="292"/><use xlink:href="#W" x="427.258" y="292"/><use xlink:href="#E" x="436.205" y="292"/><use xlink:href="#C" x="441.725" y="292"/><use xlink:href="#N" x="451.523" y="292"/><use xlink:href="#G" x="457.917" y="292"/><use xlink:href="#E" x="467.715" y="292"/><use xlink:href="#Y" x="473.235" y="292"/><use xlink:href="#D" x="483.033" y="292"/><use xlink:href="#D" x="487.265" y="292"/><use xlink:href="#G" x="491.497" y="292"/><use xlink:href="#V" x="501.295" y="292"/><use xlink:href="#E" x="511.507" y="292"/><use xlink:href="#P" x="517.027" y="292"/><use xlink:href="#U" x="521.259" y="292"/><use xlink:href="#E" x="531.471" y="292"/></g><g style="fill:#000;fill-opacity:1"><use xlink:href="#G" x="72" y="320"/><use xlink:href="#C" x="81.798" y="320"/><use xlink:href="#Z" x="91.596" y="320"/><use xlink:href="#B" x="100.957" y="320"/><use xlink:href="#E" x="111.169" y="320"/><use xlink:href="#N" x="116.689" y="320"/><use xlink:href="#C" x="123.083" y="320"/><use xlink:href="#Z" x="132.881" y="320"/><use xlink:href="#G" x="142.242" y="320"/><use xlink:href="#ad" x="152.04" y="320"/></g><g style="fill:#000;fill-opacity:1"><use xlink:href="#E" x="156.709" y="320"/><use xlink:href="#R" x="162.229" y="320"/><use xlink:href="#I" x="172.027" y="320"/><use xlink:href="#N" x="181.825" y="320"/><use xlink:href="#E" x="188.219" y="320"/><use xlink:href="#G" x="193.739" y="320"/><use xlink:href="#C" x="203.537" y="320"/><use xlink:href="#Z" x="213.335" y="320"/><use xlink:href="#B" x="222.696" y="320"/><use xlink:href="#E" x="232.908" y="320"/><use xlink:href="#Z" x="238.428" y="320"/><use xlink:href="#C" x="247.789" y="320"/><use xlink:href="#U" x="257.587" y="320"/><use xlink:href="#V" x="267.799" y="320"/><use xlink:href="#P" x="278.011" y="320"/><use xlink:href="#V" x="282.243" y="320"/><use xlink:href="#C" x="292.455" y="320"/><use xlink:href="#F" x="302.253" y="320"/><use xlink:href="#G" x="307.796" y="320"/><use xlink:href="#ae" x="317.594" y="320"/></g><g style="fill:#000;fill-opacity:1"><use xlink:href="#W" x="321.849" y="320"/><use xlink:href="#E" x="330.796" y="320"/><use xlink:href="#N" x="336.316" y="320"/><use xlink:href="#G" x="342.71" y="320"/><use xlink:href="#W" x="352.508" y="320"/><use xlink:href="#L" x="361.455" y="320"/><use xlink:href="#D" x="371.667" y="320"/><use xlink:href="#F" x="375.899" y="320"/><use xlink:href="#E" x="381.442" y="320"/><use xlink:href="#P" x="386.962" y="320"/><use xlink:href="#U" x="391.194" y="320"/><use xlink:href="#E" x="401.406" y="320"/><use xlink:href="#G" x="406.926" y="320"/><use xlink:href="#C" x="416.724" y="320"/><use xlink:href="#Z" x="426.522" y="320"/><use xlink:href="#B" x="435.883" y="320"/><use xlink:href="#E" x="446.095" y="320"/><use xlink:href="#N" x="451.615" y="320"/><use xlink:href="#C" x="458.009" y="320"/><use xlink:href="#Z" x="467.807" y="320"/><use xlink:href="#G" x="477.168" y="320"/><use xlink:href="#af" x="486.966" y="320"/></g><g style="fill:#000;fill-opacity:1"><use xlink:href="#E" x="491.635" y="320"/><use xlink:href="#F" x="497.155" y="320"/><use xlink:href="#B" x="502.698" y="320"/><use xlink:href="#G" x="512.91" y="320"/><use xlink:href="#E" x="522.708" y="320"/></g><g style="fill:#000;fill-opacity:1"><use xlink:href="#N" x="72" y="348"/><use xlink:href="#G" x="78.394" y="348"/><use xlink:href="#ac" x="88.192" y="348"/><use xlink:href="#I" x="98.404" y="348"/><use xlink:href="#N" x="108.202" y="348"/><use xlink:href="#F" x="114.596" y="348"/><use xlink:href="#G" x="120.139" y="348"/><use xlink:href="#V" x="129.937" y="348"/><use xlink:href="#E" x="140.149" y="348"/><use xlink:href="#ab" x="145.669" y="348"/><use xlink:href="#I" x="154.179" y="348"/><use xlink:href="#F" x="163.977" y="348"/><use xlink:href="#G" x="169.52" y="348"/><use xlink:href="#E" x="179.318" y="348"/><use xlink:href="#ac" x="184.838" y="348"/><use xlink:href="#G" x="195.05" y="348"/><use xlink:href="#N" x="204.848" y="348"/><use xlink:href="#Z" x="211.242" y="348"/><use xlink:href="#G" x="220.603" y="348"/><use xlink:href="#U" x="230.401" y="348"/><use xlink:href="#F" x="240.613" y="348"/><use xlink:href="#C" x="246.156" y="348"/><use xlink:href="#S" x="255.954" y="348"/><use xlink:href="#G" x="266.166" y="348"/><use xlink:href="#W" x="275.964" y="348"/><use xlink:href="#E" x="284.911" y="348"/><use xlink:href="#C" x="290.431" y="348"/><use xlink:href="#N" x="300.229" y="348"/><use xlink:href="#G" x="306.623" y="348"/><use xlink:href="#E" x="316.421" y="348"/><use xlink:href="#Z" x="321.941" y="348"/><use xlink:href="#C" x="331.302" y="348"/><use xlink:href="#D" x="341.1" y="348"/><use xlink:href="#Z" x="345.332" y="348"/><use xlink:href="#L" x="354.693" y="348"/><use xlink:href="#D" x="364.905" y="348"/><use xlink:href="#C" x="369.137" y="348"/><use xlink:href="#F" x="378.935" y="348"/><use xlink:href="#G" x="384.478" y="348"/><use xlink:href="#V" x="394.276" y="348"/><use xlink:href="#E" x="404.488" y="348"/><use xlink:href="#T" x="410.008" y="348"/><use xlink:href="#Q" x="420.22" y="348"/><use xlink:href="#E" x="428.73" y="348"/><use xlink:href="#F" x="434.25" y="348"/><use xlink:href="#C" x="439.793" y="348"/><use xlink:href="#ag" x="449.591" y="348"/><use xlink:href="#P" x="458.952" y="348"/><use xlink:href="#U" x="463.184" y="348"/><use xlink:href="#S" x="473.396" y="348"/><use xlink:href="#E" x="483.608" y="348"/><use xlink:href="#F" x="489.128" y="348"/><use xlink:href="#B" x="494.671" y="348"/><use xlink:href="#G" x="504.883" y="348"/><use xlink:href="#E" x="514.681" y="348"/></g><g style="fill:#000;fill-opacity:1"><use xlink:href="#U" x="72" y="376"/><use xlink:href="#L" x="82.212" y="376"/><use xlink:href="#J" x="92.424" y="376"/><use xlink:href="#T" x="108.202" y="376"/><use xlink:href="#G" x="118.414" y="376"/><use xlink:href="#N" x="128.212" y="376"/><use xlink:href="#E" x="134.606" y="376"/><use xlink:href="#I" x="140.126" y="376"/><use xlink:href="#O" x="149.924" y="376"/><use xlink:href="#E" x="155.467" y="376"/><use xlink:href="#ab" x="160.987" y="376"/><use xlink:href="#I" x="169.497" y="376"/><use xlink:href="#F" x="179.295" y="376"/><use xlink:href="#G" x="184.838" y="376"/><use xlink:href="#W" x="194.636" y="376"/><use xlink:href="#E" x="203.583" y="376"/><use xlink:href="#O" x="209.103" y="376"/><use xlink:href="#I" x="214.646" y="376"/><use xlink:href="#N" x="224.444" y="376"/><use xlink:href="#E" x="230.838" y="376"/><use xlink:href="#F" x="236.358" y="376"/><use xlink:href="#B" x="241.901" y="376"/><use xlink:href="#C" x="252.113" y="376"/><use xlink:href="#F" x="261.911" y="376"/><use xlink:href="#E" x="267.454" y="376"/><use xlink:href="#Z" x="272.974" y="376"/><use xlink:href="#C" x="282.335" y="376"/><use xlink:href="#U" x="292.133" y="376"/><use xlink:href="#V" x="302.345" y="376"/><use xlink:href="#P" x="312.557" y="376"/><use xlink:href="#V" x="316.789" y="376"/><use xlink:href="#C" x="327.001" y="376"/><use xlink:href="#F" x="336.799" y="376"/><use xlink:href="#G" x="342.342" y="376"/><use xlink:href="#E" x="352.14" y="376"/><use xlink:href="#V" x="357.66" y="376"/><use xlink:href="#P" x="367.872" y="376"/><use xlink:href="#ab" x="372.104" y="376"/><use xlink:href="#P" x="380.614" y="376"/><use xlink:href="#V" x="384.846" y="376"/><use xlink:href="#G" x="395.058" y="376"/><use xlink:href="#V" x="404.856" y="376"/><use xlink:href="#E" x="415.068" y="376"/><use xlink:href="#T" x="420.588" y="376"/><use xlink:href="#Q" x="430.8" y="376"/><use xlink:href="#E" x="439.31" y="376"/><use xlink:href="#F" x="444.83" y="376"/><use xlink:href="#B" x="450.373" y="376"/><use xlink:href="#G" x="460.585" y="376"/><use xlink:href="#E" x="470.383" y="376"/><use xlink:href="#F" x="475.903" y="376"/><use xlink:href="#I" x="481.446" y="376"/><use xlink:href="#F" x="491.244" y="376"/><use xlink:href="#C" x="496.787" y="376"/><use xlink:href="#D" x="506.585" y="376"/><use xlink:href="#E" x="510.817" y="376"/></g><g style="fill:#000;fill-opacity:1"><use xlink:href="#T" x="72" y="404"/><use xlink:href="#C" x="82.212" y="404"/><use xlink:href="#D" x="92.01" y="404"/><use xlink:href="#D" x="96.242" y="404"/><use xlink:href="#I" x="100.474" y="404"/><use xlink:href="#F" x="110.272" y="404"/><use xlink:href="#W" x="115.815" y="404"/><use xlink:href="#E" x="124.762" y="404"/><use xlink:href="#Z" x="130.282" y="404"/><use xlink:href="#C" x="139.643" y="404"/><use xlink:href="#W" x="149.441" y="404"/><use xlink:href="#F" x="158.388" y="404"/><use xlink:href="#ad" x="163.931" y="404"/><use xlink:href="#ae" x="169.451" y="404"/><use xlink:href="#E" x="174.971" y="404"/></g><g style="fill:#000;fill-opacity:1"><use xlink:href="#ah" x="179.64" y="404"/><use xlink:href="#D" x="191.14" y="404"/><use xlink:href="#D" x="195.372" y="404"/><use xlink:href="#E" x="199.604" y="404"/><use xlink:href="#C" x="205.124" y="404"/><use xlink:href="#W" x="214.922" y="404"/><use xlink:href="#E" x="223.869" y="404"/><use xlink:href="#ac" x="229.389" y="404"/><use xlink:href="#N" x="239.601" y="404"/><use xlink:href="#I" x="245.995" y="404"/><use xlink:href="#ab" x="255.793" y="404"/><use xlink:href="#P" x="264.303" y="404"/><use xlink:href="#V" x="268.535" y="404"/><use xlink:href="#G" x="278.747" y="404"/><use xlink:href="#V" x="288.545" y="404"/><use xlink:href="#E" x="298.757" y="404"/><use xlink:href="#P" x="304.277" y="404"/><use xlink:href="#U" x="308.509" y="404"/><use xlink:href="#E" x="318.721" y="404"/><use xlink:href="#F" x="324.241" y="404"/><use xlink:href="#B" x="329.784" y="404"/><use xlink:href="#G" x="339.996" y="404"/><use xlink:href="#E" x="349.794" y="404"/><use xlink:href="#ai" x="355.314" y="404"/><use xlink:href="#I" x="367.665" y="404"/><use xlink:href="#F" x="377.463" y="404"/><use xlink:href="#P" x="383.006" y="404"/><use xlink:href="#Z" x="387.238" y="404"/><use xlink:href="#G" x="396.599" y="404"/><use xlink:href="#E" x="406.397" y="404"/><use xlink:href="#I" x="411.917" y="404"/><use xlink:href="#O" x="421.715" y="404"/><use xlink:href="#E" x="427.258" y="404"/><use xlink:href="#aj" x="432.778" y="404"/><use xlink:href="#N" x="443.818" y="404"/><use xlink:href="#I" x="450.212" y="404"/><use xlink:href="#ac" x="460.01" y="404"/><use xlink:href="#I" x="470.222" y="404"/><use xlink:href="#W" x="480.02" y="404"/><use xlink:href="#G" x="488.967" y="404"/><use xlink:href="#V" x="498.765" y="404"/><use xlink:href="#E" x="508.977" y="404"/></g><g style="fill:#000;fill-opacity:1"><use xlink:href="#H" x="72" y="432"/><use xlink:href="#I" x="83.937" y="432"/><use xlink:href="#J" x="93.735" y="432"/><use xlink:href="#G" x="109.513" y="432"/><use xlink:href="#E" x="119.311" y="432"/><use xlink:href="#K" x="124.831" y="432"/><use xlink:href="#L" x="136.331" y="432"/><use xlink:href="#D" x="146.543" y="432"/><use xlink:href="#G" x="150.775" y="432"/><use xlink:href="#E" x="160.573" y="432"/><use xlink:href="#M" x="166.093" y="432"/><use xlink:href="#B" x="178.03" y="432"/><use xlink:href="#C" x="188.242" y="432"/><use xlink:href="#N" x="198.04" y="432"/><use xlink:href="#F" x="204.434" y="432"/><use xlink:href="#G" x="209.977" y="432"/><use xlink:href="#N" x="219.775" y="432"/><use xlink:href="#E" x="226.169" y="432"/></g><g style="fill:#000;fill-opacity:1"><use xlink:href="#ah" x="230.838" y="432"/><use xlink:href="#J" x="242.338" y="432"/><use xlink:href="#G" x="258.116" y="432"/><use xlink:href="#U" x="267.914" y="432"/><use xlink:href="#V" x="278.126" y="432"/><use xlink:href="#J" x="288.338" y="432"/><use xlink:href="#G" x="304.116" y="432"/><use xlink:href="#U" x="313.914" y="432"/><use xlink:href="#F" x="324.126" y="432"/><use xlink:href="#E" x="329.669" y="432"/><use xlink:href="#C" x="335.189" y="432"/><use xlink:href="#W" x="344.987" y="432"/><use xlink:href="#E" x="353.934" y="432"/><use xlink:href="#ac" x="359.454" y="432"/><use xlink:href="#L" x="369.666" y="432"/><use xlink:href="#T" x="379.878" y="432"/><use xlink:href="#D" x="390.09" y="432"/><use xlink:href="#P" x="394.322" y="432"/><use xlink:href="#W" x="398.554" y="432"/><use xlink:href="#B" x="407.501" y="432"/><use xlink:href="#G" x="417.713" y="432"/><use xlink:href="#V" x="427.511" y="432"/><use xlink:href="#E" x="437.723" y="432"/><use xlink:href="#P" x="443.243" y="432"/><use xlink:href="#U" x="447.475" y="432"/><use xlink:href="#E" x="457.687" y="432"/></g><g style="fill:#000;fill-opacity:1"><use xlink:href="#ak" x="462.356" y="432"/><use xlink:href="#H" x="472.568" y="432"/><use xlink:href="#al" x="484.505" y="432"/><use xlink:href="#E" x="494.717" y="432"/></g><path d="M390.355 354.546h32.364" style="fill:none;stroke-width:1.15;stroke-linecap:butt;stroke-linejoin:miter;stroke:#000;stroke-opacity:1;stroke-miterlimit:10" transform="translate(72 79.2)"/><g style="fill:#000;fill-opacity:1"><use xlink:href="#R" x="72" y="460"/><use xlink:href="#am" x="81.798" y="460"/><use xlink:href="#K" x="94.586" y="460"/></g><g style="fill:#000;fill-opacity:1"><use xlink:href="#an" x="106.224" y="460"/><use xlink:href="#ao" x="117.724" y="460"/></g><g style="fill:#000;fill-opacity:1"><use xlink:href="#E" x="133.502" y="460"/><use xlink:href="#I" x="139.022" y="460"/><use xlink:href="#U" x="148.82" y="460"/><use xlink:href="#E" x="159.032" y="460"/><use xlink:href="#F" x="164.552" y="460"/><use xlink:href="#B" x="170.095" y="460"/><use xlink:href="#G" x="180.307" y="460"/><use xlink:href="#E" x="190.105" y="460"/><use xlink:href="#ap" x="195.625" y="460"/><use xlink:href="#N" x="206.665" y="460"/><use xlink:href="#V" x="213.059" y="460"/><use xlink:href="#E" x="223.271" y="460"/><use xlink:href="#V" x="228.791" y="460"/><use xlink:href="#C" x="239.003" y="460"/><use xlink:href="#Q" x="248.801" y="460"/><use xlink:href="#E" x="257.311" y="460"/><use xlink:href="#I" x="262.831" y="460"/><use xlink:href="#O" x="272.629" y="460"/><use xlink:href="#E" x="278.172" y="460"/><use xlink:href="#A" x="283.692" y="460"/><use xlink:href="#G" x="294.732" y="460"/><use xlink:href="#ac" x="304.53" y="460"/><use xlink:href="#F" x="314.742" y="460"/><use xlink:href="#G" x="320.285" y="460"/><use xlink:href="#J" x="330.083" y="460"/><use xlink:href="#T" x="345.861" y="460"/><use xlink:href="#G" x="356.073" y="460"/><use xlink:href="#N" x="365.871" y="460"/><use xlink:href="#E" x="372.265" y="460"/><use xlink:href="#aq" x="377.785" y="460"/><use xlink:href="#ar" x="388.825" y="460"/><use xlink:href="#as" x="399.865" y="460"/><use xlink:href="#at" x="410.905" y="460"/><use xlink:href="#au" x="421.945" y="460"/><use xlink:href="#E" x="431.743" y="460"/></g><path d="M0 382.546h61.504" style="fill:none;stroke-width:1.15;stroke-linecap:butt;stroke-linejoin:miter;stroke:#000;stroke-opacity:1;stroke-miterlimit:10" transform="translate(72 79.2)"/><g style="fill:#000;fill-opacity:1"><use xlink:href="#A" x="72" y="516"/><use xlink:href="#H" x="83.04" y="516"/><use xlink:href="#ah" x="94.977" y="516"/><use xlink:href="#av" x="106.477" y="516"/><use xlink:href="#av" x="116.275" y="516"/><use xlink:href="#E" x="126.073" y="516"/><use xlink:href="#A" x="131.593" y="516"/><use xlink:href="#an" x="142.633" y="516"/><use xlink:href="#M" x="154.133" y="516"/><use xlink:href="#H" x="166.07" y="516"/><use xlink:href="#E" x="178.007" y="516"/></g><g style="fill:#000;fill-opacity:1"><use xlink:href="#ah" x="182.676" y="516"/><use xlink:href="#ao" x="194.176" y="516"/><use xlink:href="#al" x="209.954" y="516"/><use xlink:href="#ai" x="220.166" y="516"/><use xlink:href="#aw" x="232.517" y="516"/><use xlink:href="#ao" x="244.868" y="516"/><use xlink:href="#al" x="260.646" y="516"/><use xlink:href="#ai" x="270.858" y="516"/><use xlink:href="#ak" x="283.209" y="516"/><use xlink:href="#E" x="293.421" y="516"/><use xlink:href="#ax" x="298.941" y="516"/><use xlink:href="#al" x="310.441" y="516"/><use xlink:href="#E" x="320.653" y="516"/></g><g style="fill:#000;fill-opacity:1"><use xlink:href="#ah" x="325.322" y="516"/><use xlink:href="#aj" x="336.822" y="516"/><use xlink:href="#aj" x="347.862" y="516"/><use xlink:href="#K" x="358.902" y="516"/><use xlink:href="#am" x="370.402" y="516"/><use xlink:href="#ay" x="383.19" y="516"/><use xlink:href="#al" x="393.816" y="516"/><use xlink:href="#aw" x="404.028" y="516"/><use xlink:href="#au" x="416.379" y="516"/><use xlink:href="#E" x="426.177" y="516"/></g><g style="fill:#000;fill-opacity:1"><use xlink:href="#az" x="155.04" y="600"/><use xlink:href="#t" x="166.103" y="600"/><use xlink:href="#aA" x="177.166" y="600"/></g><g style="fill:#000;fill-opacity:1"><use xlink:href="#ao" x="215.999" y="600"/><use xlink:href="#G" x="231.777" y="600"/><use xlink:href="#C" x="241.575" y="600"/><use xlink:href="#U" x="251.373" y="600"/><use xlink:href="#W" x="261.585" y="600"/><use xlink:href="#E" x="270.532" y="600"/><use xlink:href="#Q" x="276.052" y="600"/><use xlink:href="#I" x="284.562" y="600"/><use xlink:href="#L" x="294.36" y="600"/><use xlink:href="#E" x="304.572" y="600"/><use xlink:href="#C" x="310.092" y="600"/><use xlink:href="#ac" x="319.89" y="600"/><use xlink:href="#ac" x="330.102" y="600"/><use xlink:href="#N" x="340.314" y="600"/><use xlink:href="#I" x="346.708" y="600"/><use xlink:href="#ab" x="356.506" y="600"/><use xlink:href="#G" x="365.016" y="600"/><use xlink:href="#E" x="374.814" y="600"/><use xlink:href="#F" x="380.334" y="600"/><use xlink:href="#B" x="385.877" y="600"/><use xlink:href="#G" x="396.089" y="600"/><use xlink:href="#E" x="405.887" y="600"/><use xlink:href="#J" x="411.407" y="600"/><use xlink:href="#G" x="427.185" y="600"/><use xlink:href="#C" x="436.983" y="600"/><use xlink:href="#W" x="446.781" y="600"/><use xlink:href="#L" x="455.728" y="600"/><use xlink:href="#N" x="465.94" y="600"/><use xlink:href="#G" x="472.334" y="600"/><use xlink:href="#E" x="482.132" y="600"/><use xlink:href="#C" x="487.652" y="600"/><use xlink:href="#W" x="497.45" y="600"/><use xlink:href="#E" x="506.397" y="600"/><use xlink:href="#E" x="511.917" y="600"/></g><g style="fill:#000;fill-opacity:1"><use xlink:href="#W" x="215.998" y="628"/><use xlink:href="#L" x="224.945" y="628"/><use xlink:href="#J" x="235.157" y="628"/><use xlink:href="#J" x="250.935" y="628"/><use xlink:href="#C" x="266.713" y="628"/><use xlink:href="#N" x="276.511" y="628"/><use xlink:href="#P" x="282.905" y="628"/><use xlink:href="#aB" x="287.137" y="628"/><use xlink:href="#G" x="295.233" y="628"/><use xlink:href="#V" x="305.031" y="628"/><use xlink:href="#E" x="315.243" y="628"/><use xlink:href="#C" x="320.763" y="628"/><use xlink:href="#T" x="330.561" y="628"/><use xlink:href="#I" x="340.773" y="628"/><use xlink:href="#ab" x="350.571" y="628"/><use xlink:href="#G" x="359.081" y="628"/><use xlink:href="#ad" x="368.879" y="628"/></g><g style="fill:#000;fill-opacity:1"><use xlink:href="#o" x="155.04" y="684"/><use xlink:href="#s" x="168.242" y="684"/><use xlink:href="#f" x="181.03" y="684"/></g><g style="fill:#000;fill-opacity:1"><use xlink:href="#ao" x="216" y="684"/><use xlink:href="#G" x="231.778" y="684"/><use xlink:href="#C" x="241.576" y="684"/><use xlink:href="#U" x="251.374" y="684"/><use xlink:href="#W" x="261.586" y="684"/><use xlink:href="#E" x="270.533" y="684"/><use xlink:href="#Q" x="276.053" y="684"/><use xlink:href="#I" x="284.563" y="684"/><use xlink:href="#L" x="294.361" y="684"/><use xlink:href="#E" x="304.573" y="684"/><use xlink:href="#N" x="310.093" y="684"/><use xlink:href="#G" x="316.487" y="684"/><use xlink:href="#aC" x="326.285" y="684"/><use xlink:href="#G" x="330.517" y="684"/><use xlink:href="#Z" x="340.315" y="684"/><use xlink:href="#F" x="349.676" y="684"/><use xlink:href="#E" x="355.219" y="684"/><use xlink:href="#F" x="360.739" y="684"/><use xlink:href="#B" x="366.282" y="684"/><use xlink:href="#G" x="376.494" y="684"/><use xlink:href="#E" x="386.292" y="684"/><use xlink:href="#J" x="391.812" y="684"/><use xlink:href="#G" x="407.59" y="684"/><use xlink:href="#C" x="417.388" y="684"/><use xlink:href="#W" x="427.186" y="684"/><use xlink:href="#L" x="436.133" y="684"/><use xlink:href="#N" x="446.345" y="684"/><use xlink:href="#G" x="452.739" y="684"/><use xlink:href="#E" x="462.537" y="684"/><use xlink:href="#C" x="468.057" y="684"/><use xlink:href="#W" x="477.855" y="684"/><use xlink:href="#E" x="486.802" y="684"/><use xlink:href="#E" x="492.322" y="684"/></g><g style="fill:#000;fill-opacity:1"><use xlink:href="#W" x="215.998" y="712"/><use xlink:href="#L" x="224.945" y="712"/><use xlink:href="#J" x="235.157" y="712"/><use xlink:href="#J" x="250.935" y="712"/><use xlink:href="#C" x="266.713" y="712"/><use xlink:href="#N" x="276.511" y="712"/><use xlink:href="#P" x="282.905" y="712"/><use xlink:href="#aB" x="287.137" y="712"/><use xlink:href="#G" x="295.233" y="712"/><use xlink:href="#V" x="305.031" y="712"/><use xlink:href="#E" x="315.243" y="712"/><use xlink:href="#C" x="320.763" y="712"/><use xlink:href="#T" x="330.561" y="712"/><use xlink:href="#I" x="340.773" y="712"/><use xlink:href="#ab" x="350.571" y="712"/><use xlink:href="#G" x="359.081" y="712"/><use xlink:href="#ad" x="368.879" y="712"/></g><path d="M127.387 584.402c12.328 4.16 12.328 10.91 0 15.075s-32.313 4.164-44.64 0c-12.329-4.164-12.329-10.914 0-15.075 12.327-4.164 32.312-4.164 44.64 0m0 0" style="stroke:none;fill-rule:nonzero;fill:#000;fill-opacity:1"/><g clip-path="url(#aD)"><path d="M53.887 3.124c12.328 4.16 12.328 10.91 0 15.074-12.328 4.165-32.313 4.165-44.64 0-12.329-4.164-12.329-10.914 0-15.074 12.327-4.164 32.312-4.164 44.64 0Zm0 0" style="fill:none;stroke-width:2;stroke-linecap:butt;stroke-linejoin:miter;stroke:#000;stroke-opacity:1;stroke-miterlimit:4" transform="translate(73.5 581.278)"/></g><path d="M127.387 668c12.328 4.164 12.328 10.914 0 15.078s-32.313 4.164-44.64 0c-12.329-4.164-12.329-10.914 0-15.078 12.327-4.164 32.312-4.164 44.64 0m0 0" style="stroke:none;fill-rule:nonzero;fill:#fff;fill-opacity:1"/><g clip-path="url(#aE)"><path d="M53.887 3.122c12.328 4.164 12.328 10.914 0 15.078s-32.313 4.164-44.64 0c-12.329-4.164-12.329-10.914 0-15.078 12.327-4.164 32.312-4.164 44.64 0Zm0 0" style="fill:none;stroke-width:2;stroke-linecap:butt;stroke-linejoin:miter;stroke:#000;stroke-opacity:1;stroke-miterlimit:4" transform="translate(73.5 664.878)"/></g></svg>