<svg xmlns="http://www.w3.org/2000/svg" xml:space="preserve" width="400" height="400" overflow="visible" viewBox="0 0 400 400"><path fill="#fff" d="M0 0h400v400H0z"/><path fill="#00adef" d="M330.248 144.093c33.588 19.571 58.1 53.891 63.647 95.401 9.537 71.352-40.577 136.922-111.928 146.46-29.826 3.986-58.65-2.456-82.79-16.51"/><path fill="#ec008c" d="M199.176 369.44c-14.242 8.166-30.277 13.757-47.555 16.068C80.271 395.045 14.7 344.932 5.164 273.584c-7.151-53.51 19.247-103.776 62.995-129.585q.684-.404 1.375-.8"/><path fill="#fff200" d="M69.535 143.206c.137-64.194 47.693-120.01 113.091-128.75C253.975 4.917 319.545 55.03 329.082 126.38a131 131 0 0 1 1.166 17.706"/><path fill="#00a650" d="M198.508 144.443c14.58-8.603 31.094-14.489 48.931-16.874 29.838-3.989 58.666 2.457 82.809 16.524v-.006c-.102 47.232-25.875 89.929-65.531 112.677"/><path fill="#ed1c24" d="M134.347 256.315c-33.583-19.569-58.1-53.893-63.65-95.402a132 132 0 0 1-1.162-17.707v-.007c14.241-8.169 30.276-13.764 47.554-16.074 29.836-3.987 58.66 2.454 82.802 16.516"/><path fill="#2e3192" d="M264.709 256.76c-.096 47.236-25.867 89.931-65.533 112.68l.002.003c-33.593-19.568-58.117-53.896-63.667-95.414a132 132 0 0 1-1.164-17.71"/><path fill="#363639" d="M264.717 256.764c-14.248 8.168-30.28 13.765-47.559 16.076-29.838 3.984-58.669-2.455-82.811-16.526v.004c.1-46.681 25.278-88.936 64.16-111.875l1.384-.802c33.59 19.57 58.11 53.894 63.66 95.408a131.5 131.5 0 0 1 1.158 17.71z"/><text xml:space="preserve" x="185.676" y="89.125" style="font-size:48px;font-style:normal;font-variant:normal;font-weight:700;font-stretch:normal;font-family:Times New Roman"><tspan x="140.676" y="89.125">Nader</tspan></text><text xml:space="preserve" x="76.393" y="325.729" style="font-size:48px;font-style:normal;font-variant:normal;font-weight:700;font-stretch:normal;font-family:Times New Roman"><tspan x="36.393" y="325.729">Bush</tspan></text><text xml:space="preserve" x="304.509" y="317.241" style="font-size:48px;font-style:normal;font-variant:normal;font-weight:700;font-stretch:normal;font-family:Times New Roman"><tspan x="270.509" y="317.241">Gore</tspan></text></svg>